<?xml version="1.0" standalone="no"?>
<!DOCTYPE svg PUBLIC "-//W3C//DTD SVG 20010904//EN"
 "http://www.w3.org/TR/2001/REC-SVG-20010904/DTD/svg10.dtd">
<svg version="1.0" xmlns="http://www.w3.org/2000/svg"
 width="528.000000pt" height="528.000000pt" viewBox="0 0 528.000000 528.000000"
 preserveAspectRatio="xMidYMid meet">
<metadata>
Created by potrace 1.14, written by Peter Selinger 2001-2017
</metadata>
<g transform="translate(0.000000,528.000000) scale(0.100000,-0.100000)"
fill="#000000" stroke="none">
<path d="M2658 5235 c-2 -2 -32 -5 -68 -8 -68 -5 -249 -40 -310 -59 -127 -40
-229 -80 -350 -136 -118 -56 -418 -255 -419 -279 -1 -7 24 -65 55 -130 31 -65
71 -149 89 -188 18 -38 73 -153 122 -255 49 -102 100 -210 114 -240 l26 -54
-71 -50 c-155 -107 -245 -172 -321 -235 -173 -141 -416 -388 -450 -457 l-19
-41 -70 25 c-73 25 -139 26 -203 1 -15 -6 -30 -11 -33 -12 -30 -9 -101 -88
-124 -137 -24 -51 -24 -49 -13 -1151 l6 -526 -35 -38 c-19 -21 -34 -46 -34
-56 0 -9 -22 -34 -49 -53 -59 -43 -143 -134 -182 -194 l-27 -43 -20 26 c-16
20 -19 32 -12 50 10 27 -11 90 -32 97 -24 8 -79 -25 -74 -45 3 -14 0 -16 -15
-12 -29 9 -24 -21 7 -50 26 -24 42 -30 73 -25 15 2 48 -30 53 -51 1 -8 -10
-42 -25 -77 l-29 -63 -37 33 c-77 68 -122 95 -140 84 -15 -9 -7 -134 12 -178
l15 -36 -33 5 c-32 5 -34 4 -30 -18 21 -113 74 -217 151 -294 25 -25 26 -25
214 -25 169 0 190 -2 199 -17 10 -17 10 -17 11 0 0 16 11 17 137 15 129 -3
138 -4 141 -23 6 -35 12 -46 21 -40 6 3 6 17 1 35 l-9 30 407 2 407 3 -1 30
c-3 55 -34 175 -53 205 -7 10 -4 24 9 45 25 41 42 117 28 126 -13 8 -52 -2
-98 -26 l-33 -17 7 33 c4 19 10 69 12 111 l6 78 -33 -12 c-32 -11 -114 -86
-135 -123 -9 -16 -12 -12 -21 34 -9 48 -9 54 10 72 11 10 28 19 37 19 20 0 56
37 47 47 -4 3 -19 1 -34 -6 -27 -13 -28 -13 -9 8 10 11 22 18 27 15 11 -6 75
21 84 37 6 9 -2 11 -33 6 -23 -3 -42 -2 -42 1 1 21 31 42 59 42 44 0 100 53
80 76 -10 12 -14 12 -20 2 -6 -9 -9 -9 -9 -1 0 6 5 15 10 18 6 4 8 11 4 16 -4
6 -17 1 -32 -13 l-26 -23 17 27 c22 35 21 38 -3 38 -11 0 -20 -4 -20 -10 0 -5
-5 -10 -11 -10 -5 0 -7 4 -4 10 3 5 1 10 -5 10 -16 0 -40 -63 -40 -103 0 -42
-9 -52 -26 -29 -18 24 -27 10 -27 -43 0 -52 -13 -68 -26 -32 -6 14 -15 28 -20
32 -14 8 -14 -50 -1 -76 7 -12 7 -25 2 -36 -8 -13 -12 -9 -22 21 -21 64 -77
154 -125 201 -25 25 -48 45 -53 45 -4 0 -16 7 -26 15 -15 12 -20 29 -22 78 -5
109 -8 1107 -3 1111 2 2 146 -91 319 -206 173 -114 321 -212 328 -217 8 -4 31
-77 53 -162 123 -494 161 -646 164 -659 2 -8 40 -163 85 -345 45 -181 84 -339
86 -350 2 -11 11 -47 19 -80 40 -158 64 -238 74 -244 5 -3 68 -6 141 -5 l132
0 -38 -31 c-20 -17 -38 -39 -40 -48 -2 -16 22 -17 319 -15 l321 3 17 90 c21
108 22 122 9 109 -5 -5 -12 -23 -14 -39 -2 -17 -9 -57 -16 -90 l-13 -60 -298
0 c-165 1 -299 5 -300 9 -1 13 81 66 105 68 12 1 73 3 136 4 181 3 164 -1 143
35 -19 32 -70 69 -96 69 -20 0 -25 9 -41 70 -15 58 -13 59 69 35 27 -9 59 -17
70 -20 11 -2 70 -18 130 -34 136 -38 143 -38 150 -3 9 41 41 169 60 237 10 33
23 85 31 115 8 30 16 62 18 70 3 8 14 51 26 95 32 119 101 372 116 425 2 8 17
65 33 125 16 61 43 160 61 220 17 61 33 117 35 125 1 8 15 60 30 115 15 55 40
146 55 203 15 56 29 104 31 106 5 3 118 65 229 123 41 22 101 55 133 72 55 29
86 33 71 9 -4 -7 -2 -8 4 -4 6 4 9 13 7 21 -3 8 -7 22 -10 31 -4 13 -15 10
-66 -17 -59 -32 -61 -32 -72 -13 -6 10 -27 36 -47 56 -37 37 -67 46 -105 32
-39 -15 -61 -123 -37 -184 9 -24 6 -28 -64 -65 -82 -44 -75 -32 -119 -205 -15
-58 -28 -109 -30 -115 -1 -5 -6 -25 -10 -43 l-8 -33 -32 36 c-73 79 -155 20
-155 -110 0 -64 41 -192 69 -215 31 -26 32 -38 6 -141 -15 -57 -28 -111 -30
-119 -15 -67 -29 -111 -35 -115 -5 -3 -7 3 -6 12 2 10 -1 32 -6 48 -6 17 -10
36 -11 43 -1 25 -54 72 -80 72 -59 0 -121 -111 -120 -215 1 -98 40 -182 88
-186 36 -3 44 1 71 29 21 22 25 24 20 7 -10 -37 -58 -220 -61 -238 -12 -58
-23 -69 -44 -43 -18 21 -62 10 -93 -24 -56 -61 -70 -212 -26 -299 14 -28 24
-51 22 -51 -2 0 -29 7 -61 16 -32 8 -66 17 -75 20 -10 2 -26 6 -35 9 -10 2
-61 15 -113 28 -51 13 -95 28 -97 34 -2 5 2 10 9 10 28 0 129 56 163 91 51 51
68 92 54 131 -6 16 -20 33 -31 37 -32 10 -91 12 -113 4 -11 -4 -33 -10 -48
-14 -27 -6 -28 -5 -23 21 10 44 14 67 22 120 10 71 13 85 18 91 3 2 24 -12 47
-31 81 -70 188 -103 233 -73 98 64 -45 245 -215 272 -42 7 -42 5 -21 104 l8
34 69 1 c114 0 151 35 116 109 -17 34 -34 49 -85 76 -63 34 -70 43 -56 80 2 3
2 8 1 12 0 4 4 31 9 60 5 29 12 69 15 88 3 19 8 48 11 65 4 16 8 43 10 60 9
92 17 141 23 148 4 4 28 -1 52 -11 62 -27 129 -19 148 16 28 53 -41 177 -132
237 -34 22 -32 48 10 120 16 28 35 69 42 92 l14 42 41 -28 c61 -42 115 -56
160 -41 20 6 36 12 36 13 0 1 4 16 9 34 11 40 -19 111 -72 167 -21 21 -37 42
-37 46 0 5 19 18 43 30 23 12 94 49 157 83 198 103 294 153 322 164 23 10 36
7 105 -28 82 -42 142 -50 210 -30 83 24 142 107 146 202 2 53 -2 51 83 52 42
0 144 -29 144 -42 0 -4 -8 -7 -17 -8 -36 -3 -134 -45 -165 -71 -44 -37 -62
-85 -46 -120 38 -78 240 -55 334 37 l32 31 20 -52 c11 -29 21 -60 21 -68 4
-76 6 -350 3 -367 -3 -14 -11 -23 -23 -23 -28 0 -82 -63 -102 -117 -37 -104
-23 -238 28 -261 32 -15 72 -15 80 -2 17 27 23 2 16 -65 -1 -6 -16 -16 -33
-23 -38 -14 -105 -73 -137 -119 -11 -17 -24 -52 -27 -76 -6 -40 -3 -49 20 -72
20 -20 34 -26 54 -22 25 5 25 4 8 -9 -10 -7 -23 -11 -27 -8 -5 2 -16 0 -26 -5
-10 -5 -50 -18 -89 -28 l-71 -20 3 25 c4 34 -15 70 -40 79 -37 12 -47 12 -80
-2 -19 -8 -36 -11 -40 -8 -3 4 -6 -14 -5 -38 0 -36 2 -40 9 -22 10 25 42 36
86 31 24 -2 29 -8 30 -30 1 -38 -6 -46 -60 -62 -35 -11 -48 -11 -51 -3 -10 35
-14 40 -14 17 1 -14 0 -29 -1 -35 -7 -26 -5 -211 2 -216 4 -3 48 -4 98 -2 62
2 90 -1 90 -9 0 -6 -3 -8 -6 -5 -4 4 -34 -8 -66 -25 -68 -36 -144 -116 -185
-194 -28 -54 -43 -67 -43 -39 0 18 -90 107 -104 102 -14 -5 -17 -134 -4 -189
5 -22 7 -43 4 -45 -2 -2 -16 7 -31 21 -16 15 -32 26 -38 26 -17 0 0 -92 27
-155 15 -32 24 -60 22 -62 -2 -2 -18 -6 -36 -8 -18 -2 -38 -9 -45 -15 -10 -8
-20 1 -43 38 -19 31 -27 53 -21 59 14 14 14 82 0 96 -16 16 -31 -7 -31 -47 l0
-30 -37 44 c-21 24 -43 59 -50 78 -24 71 -67 70 -97 -2 -21 -50 -21 -52 12
-65 28 -12 58 -11 78 1 6 4 24 -6 40 -23 29 -31 29 -31 5 -27 -37 5 -37 -20 1
-36 18 -8 36 -12 40 -10 4 2 21 -16 38 -41 30 -43 34 -75 10 -75 -5 0 -10 -7
-10 -15 0 -8 -4 -15 -9 -15 -20 0 -90 -210 -87 -264 1 -20 6 -21 126 -21 112
0 126 -2 130 -18 6 -21 26 -19 23 3 -2 13 53 15 440 15 415 0 442 -1 441 -18
-2 -23 17 -22 23 2 4 14 14 18 51 18 26 0 50 -4 54 -10 4 -6 47 -12 100 -13
51 -2 113 -4 138 -5 67 -3 82 6 120 67 27 46 31 57 19 65 -14 8 -40 6 -78 -6
-17 -5 -16 -1 6 45 33 68 28 86 -20 82 -32 -3 -37 -1 -37 17 0 25 0 24 -16 78
-8 26 -9 45 -3 48 14 9 11 25 -5 25 -7 0 -16 9 -19 20 -6 24 31 56 47 40 13
-13 59 -13 90 2 31 13 41 40 27 67 -9 17 -16 18 -42 11 l-32 -9 22 23 c15 16
19 26 11 31 -6 4 -14 4 -17 1 -3 -3 -13 0 -21 7 -13 10 -15 9 -9 -5 3 -10 3
-17 -1 -17 -23 4 -33 -5 -44 -43 -23 -78 -38 -76 -81 10 -35 69 -84 148 -112
179 -5 6 -23 28 -39 48 -35 43 -126 114 -179 139 -20 9 -35 21 -33 25 7 10
-26 45 -62 66 l-28 17 2 704 c3 603 1 711 -12 755 -29 96 -77 162 -164 222
-25 17 -45 30 -45 28 0 -1 -13 3 -30 10 -16 7 -65 14 -109 15 -43 2 -79 5 -80
6 -1 2 -11 23 -22 48 -55 117 -262 340 -469 505 -27 22 -52 43 -55 46 -7 9
-51 31 -54 27 -1 -2 -22 -36 -47 -76 -24 -40 -49 -81 -54 -90 -6 -9 -20 -32
-32 -51 l-21 -33 58 -62 c50 -52 56 -61 39 -64 -11 -2 -34 1 -51 7 -37 13 -94
-9 -148 -58 -33 -31 -35 -31 -42 -11 -4 12 -3 30 3 41 19 36 -10 117 -52 147
-26 18 -95 24 -120 11 -13 -6 -17 4 -27 61 -16 94 -66 181 -111 193 -29 7 -91
-19 -126 -53 -23 -22 -39 -30 -51 -26 -11 4 -43 49 -72 101 -71 126 -125 165
-223 160 -76 -4 -140 -49 -180 -127 -74 -146 80 -277 275 -234 28 6 58 10 66
10 8 -1 23 -2 32 -3 17 -1 51 -32 136 -124 42 -45 108 -71 161 -64 36 4 39 3
44 -22 3 -15 -1 -33 -10 -43 -20 -23 -2 -56 34 -60 27 -3 28 -6 31 -64 l3 -61
-48 -31 c-26 -17 -64 -46 -83 -64 -47 -44 -110 -132 -110 -152 0 -26 -17 -18
-25 12 -12 41 -12 41 -21 147 -13 146 -10 214 10 265 16 40 16 45 2 56 -9 6
-13 13 -11 16 3 3 -11 19 -30 36 -29 27 -38 30 -60 22 -13 -5 -31 -7 -37 -5
-7 3 -30 -9 -51 -26 -28 -23 -36 -36 -32 -50 4 -13 2 -19 -9 -19 -27 0 -53
-78 -61 -185 -4 -55 -9 -108 -11 -118 -1 -10 -4 -40 -5 -68 -2 -27 -6 -49 -11
-49 -4 0 -8 3 -8 8 0 4 -12 21 -26 37 -14 17 -33 39 -43 50 -27 34 -114 102
-157 124 -39 19 -42 23 -38 58 5 58 14 84 24 78 5 -3 18 -1 29 4 16 9 18 20
16 84 -3 84 -12 107 -54 136 -38 28 -91 27 -127 -1 -80 -62 -112 -136 -83
-190 8 -15 8 -26 -1 -44 -12 -21 -14 -22 -35 -8 -12 8 -31 17 -41 19 -11 3
-50 14 -89 25 -38 11 -81 20 -95 20 -21 0 1 25 135 160 88 88 163 160 166 160
3 0 15 -18 28 -40 19 -34 25 -39 42 -30 23 13 24 31 4 69 -13 27 -13 29 4 24
15 -4 22 5 36 46 23 72 22 128 -4 179 -24 48 -51 62 -116 62 -32 0 -47 5 -54
18 -5 9 -12 16 -15 15 -3 -2 -7 0 -7 5 -3 13 178 100 293 140 293 103 557 117
805 43 70 -21 227 -93 235 -108 3 -4 -5 -32 -18 -60 -23 -51 -25 -53 -62 -53
-54 0 -104 -35 -114 -80 -22 -89 -24 -180 -7 -212 9 -16 13 -17 27 -6 10 8 13
9 9 1 -5 -7 1 -17 15 -24 18 -10 24 -8 40 11 l18 22 47 -40 c27 -22 66 -59 88
-81 21 -23 42 -41 46 -41 8 0 173 250 168 255 -2 1 -58 38 -125 81 -84 55
-119 84 -116 94 5 16 145 353 167 405 8 17 37 86 65 155 28 69 57 139 65 155
7 17 25 59 40 95 15 36 33 79 40 95 42 99 55 137 50 146 -4 5 -21 9 -38 8 -23
-2 -55 13 -117 51 -198 124 -411 201 -650 236 -46 6 -277 14 -282 9z m279 -70
c243 -36 445 -113 655 -247 64 -41 76 -52 68 -66 -6 -9 -51 -116 -100 -237
-50 -121 -97 -233 -104 -250 -8 -16 -30 -68 -49 -115 -19 -47 -44 -106 -55
-132 l-20 -46 -77 38 c-78 39 -206 84 -266 95 -19 4 -47 9 -64 12 -54 10 -289
12 -345 2 -30 -5 -71 -11 -90 -14 -127 -20 -316 -87 -473 -166 -62 -32 -82
-38 -93 -28 -8 6 -14 15 -14 19 0 7 -35 81 -207 440 -36 74 -79 164 -95 199
l-31 65 29 23 c31 25 164 115 226 152 102 61 308 152 433 191 86 26 101 30
175 44 19 3 45 8 57 10 12 3 53 8 90 11 37 4 69 8 70 9 6 5 238 -3 280 -9z
m210 -1537 c-3 -8 -6 -5 -6 6 -1 11 2 17 5 13 3 -3 4 -12 1 -19z m-1327 -392
c87 -18 188 -59 201 -82 17 -32 86 -64 138 -64 23 0 59 -9 79 -19 53 -27 136
-104 193 -179 45 -59 48 -67 43 -110 -4 -45 -23 -181 -29 -212 -2 -8 -4 -23
-4 -32 -1 -9 -8 -23 -16 -31 -19 -20 -167 -69 -176 -59 -4 4 -10 18 -13 32
-44 237 -53 238 -60 3 0 -25 -5 -39 -11 -35 -5 3 -66 42 -135 87 -69 45 -171
112 -228 149 -56 37 -101 70 -98 75 3 4 1 23 -4 42 -8 30 -12 54 -26 139 -2
14 -6 34 -7 44 -2 11 -9 22 -15 24 -15 5 -15 4 -1 -75 10 -57 9 -66 -6 -83
-10 -11 -24 -20 -30 -20 -15 0 -148 145 -151 164 -1 7 53 67 120 133 133 131
131 130 236 109z m1880 -381 c0 -7 -52 -27 -57 -22 -2 3 -8 18 -13 35 l-9 32
40 -20 c21 -11 39 -23 39 -25z m-715 -5 c-3 -5 -14 -10 -23 -9 -14 0 -13 2 3
9 27 11 27 11 20 0z m-1308 -26 c-3 -3 -2 -17 3 -30 11 -29 0 -31 -36 -8 -19
13 -22 20 -13 30 6 8 21 14 32 14 11 0 18 -3 14 -6z m1451 -215 l32 -21 -46
-44 c-25 -24 -46 -44 -47 -44 -1 0 -3 26 -4 58 -1 31 -5 68 -8 81 -6 24 -6 24
17 7 13 -9 38 -26 56 -37z m59 -146 c59 -76 71 -126 33 -138 -27 -9 -102 27
-139 66 -30 31 -31 33 -15 58 50 79 69 81 121 14z m663 -115 c46 -47 46 -47
-31 -91 l-46 -26 -10 22 c-14 30 -10 101 6 121 21 25 38 20 81 -26z m724 -157
c0 -111 -3 -132 -20 -154 -10 -14 -28 -28 -40 -31 -35 -11 -49 18 -48 98 1 86
38 177 82 200 15 9 27 15 27 16 0 0 0 -58 -1 -129z m-2110 -106 c54 -21 131
-16 188 11 31 14 42 15 63 6 43 -20 108 -14 159 13 l48 25 -8 -42 c-4 -24 -8
-52 -10 -63 -13 -100 -16 -123 -19 -144 -6 -35 -15 -101 -20 -136 -2 -16 -6
-41 -9 -55 -3 -14 -8 -42 -11 -62 -8 -57 -16 -110 -21 -138 -5 -28 -49 -297
-58 -350 -3 -19 -8 -46 -10 -60 -3 -14 -7 -41 -10 -60 -3 -19 -8 -46 -11 -60
-2 -13 -7 -42 -10 -65 -3 -22 -8 -47 -10 -55 -2 -8 -6 -33 -10 -55 -6 -42 -12
-74 -20 -115 -8 -38 -18 -113 -19 -132 -1 -35 -14 -17 -21 30 -9 48 -9 53 -20
112 -4 19 -9 45 -11 58 -5 30 -10 53 -28 157 -9 50 -21 110 -26 135 -6 25 -12
61 -15 80 -4 30 -15 87 -38 210 -3 14 -10 52 -16 85 -6 33 -13 71 -16 85 -3
14 -8 39 -10 55 -3 17 -10 55 -16 85 -6 30 -12 66 -15 80 -2 14 -6 34 -9 45
-2 11 -7 43 -11 70 -3 28 -8 53 -10 56 -2 4 -6 24 -10 45 -3 22 -8 50 -10 64
-9 44 -13 64 -19 104 -3 21 -8 43 -12 50 -4 6 9 -3 29 -20 20 -17 57 -39 82
-49z m511 -36 c41 -28 77 -85 79 -123 1 -29 -1 -31 -34 -32 -49 -1 -116 38
-103 59 6 9 8 26 11 90 2 33 7 33 47 6z m1599 -271 c-1 -40 -3 -77 -3 -81 -2
-17 -112 -59 -138 -52 -22 5 -25 10 -19 36 10 49 117 169 152 169 7 0 10 -25
8 -72z m-1153 19 c19 -14 53 -65 55 -83 1 -6 -7 -43 -17 -81 -11 -37 -22 -81
-25 -96 -10 -40 -26 -28 -53 39 -24 60 -32 150 -18 207 8 29 31 35 58 14z
m1149 -171 c0 -7 -9 -16 -20 -19 -25 -6 -26 1 -2 19 22 17 22 17 22 0z m45
-353 c49 -31 59 -48 20 -33 -65 25 -155 33 -357 34 -98 1 -179 3 -179 6 -1 3
-2 42 -3 87 -2 66 1 83 14 86 8 3 65 19 125 37 61 18 117 34 125 35 8 2 16 4
18 5 1 2 5 3 10 4 44 12 100 28 112 33 8 3 24 8 34 10 11 2 22 6 25 9 3 3 7
-60 9 -139 l3 -145 44 -29z m-3524 240 c0 -5 2 -70 4 -145 3 -126 2 -137 -13
-129 -63 31 -214 51 -292 38 -54 -9 -127 -32 -177 -54 -29 -12 -53 -21 -53
-18 0 2 17 23 38 47 l37 43 -1 113 -1 112 229 0 c125 0 228 -3 229 -7z m1836
-232 c13 -15 23 -29 23 -32 0 -17 -36 -33 -77 -35 -56 -3 -72 3 -69 24 14 76
18 98 23 105 6 10 72 -31 100 -62z m-1942 -35 c43 -9 134 -48 145 -61 7 -8 17
-15 23 -15 23 0 110 -107 140 -170 17 -36 32 -67 32 -70 1 -3 7 -25 14 -50 7
-25 15 -56 17 -70 2 -14 6 -36 8 -50 3 -14 5 -45 5 -69 1 -42 2 -43 29 -37 67
16 85 17 116 6 43 -14 80 -53 107 -115 23 -51 50 -171 41 -180 -3 -3 -182 -5
-398 -5 l-394 0 -5 23 c-3 12 -10 45 -15 72 -6 28 -14 64 -17 80 -7 28 -7 51
-2 120 1 17 1 39 0 50 -2 18 -3 18 -16 -5 l-13 -25 -12 29 c-6 16 -12 37 -13
47 -2 10 -6 22 -10 25 -4 4 -1 14 7 23 19 22 27 63 16 81 -9 13 -13 11 -28 -8
l-18 -23 -11 36 c-7 21 -8 46 -4 59 12 30 -1 107 -16 93 -3 -4 -12 -2 -19 4
-9 7 -18 5 -32 -9 -10 -10 -26 -21 -35 -25 -9 -3 -17 -15 -17 -25 0 -25 47
-72 71 -72 12 0 24 -13 34 -36 18 -44 19 -49 2 -36 -7 6 -25 16 -40 21 -25 10
-27 9 -17 -8 5 -11 22 -29 37 -40 16 -11 33 -25 40 -31 16 -13 49 -118 40
-127 -4 -4 -13 -1 -19 5 -7 7 -20 12 -31 12 -18 0 -18 -1 1 -28 11 -15 32 -34
46 -41 25 -14 35 -32 41 -74 2 -12 10 -52 18 -90 8 -37 12 -69 8 -71 -3 -2
-65 -4 -137 -5 l-131 -1 -36 86 c-32 77 -34 89 -22 108 18 28 29 92 17 100
-11 7 -30 -36 -34 -78 -3 -26 -7 -20 -41 49 -34 67 -37 81 -28 103 9 18 9 33
0 60 l-12 35 -12 -24 c-7 -13 -11 -27 -9 -31 3 -5 0 -8 -6 -8 -6 0 -14 10 -19
23 -5 12 -21 39 -35 60 -31 45 -32 57 -8 94 105 168 262 277 452 312 43 8 163
6 205 -3z m2273 -17 c42 -67 28 -221 -25 -274 -33 -32 -48 -32 -70 2 -39 58
-14 229 40 274 29 24 39 24 55 -2z m1317 6 c33 -6 42 -10 135 -53 131 -62 255
-207 338 -394 18 -41 19 -48 5 -59 -12 -11 -14 -10 -13 2 1 7 2 23 1 34 -1 19
-3 19 -20 -4 -10 -13 -17 -35 -15 -49 2 -17 -11 -42 -39 -78 -23 -29 -45 -53
-48 -53 -3 -1 -4 11 -3 27 1 15 -2 35 -5 45 -6 17 -9 17 -19 4 -10 -12 -10
-23 1 -54 11 -34 11 -42 -2 -65 -22 -35 -89 -157 -104 -187 l-12 -25 -448 -1
c-316 -1 -450 1 -452 9 -2 6 -16 52 -32 103 -20 61 -26 97 -21 108 14 23 18
56 12 82 -8 29 -21 21 -32 -20 l-9 -32 -16 32 -17 31 30 10 c30 11 74 10 123
-3 24 -6 27 -4 28 16 4 63 11 123 24 191 7 34 37 110 63 158 60 109 137 179
239 216 61 22 79 24 173 20 58 -3 119 -7 135 -11z m-4375 -197 c0 -6 -6 -5
-15 2 -8 7 -15 14 -15 16 0 2 7 1 15 -2 8 -4 15 -11 15 -16z m2675 -58 c51
-25 86 -55 118 -104 50 -73 -3 -98 -108 -50 -79 37 -141 102 -130 138 3 9 7
23 10 31 6 19 52 13 110 -15z m-2540 -171 c19 -33 35 -62 35 -64 0 -2 -19 -1
-42 2 l-43 5 25 -21 c14 -11 31 -21 38 -22 6 -1 17 -3 22 -4 6 -1 14 -3 19 -4
8 -1 56 -89 80 -145 2 -5 -13 0 -33 12 -44 26 -46 26 -46 7 0 -7 22 -24 50
-37 46 -21 51 -27 80 -95 16 -40 30 -75 30 -78 0 -3 -82 -4 -182 -3 l-183 3 0
85 c1 96 11 186 27 230 3 8 16 44 28 80 21 61 45 110 55 110 2 0 20 -27 40
-61z m4915 1 c0 -5 -5 -10 -11 -10 -5 0 -7 5 -4 10 3 6 8 10 11 10 2 0 4 -4 4
-10z m-176 -150 c19 0 24 -9 37 -66 17 -71 14 -80 -33 -105 -36 -19 -93 -74
-145 -137 -14 -18 -30 -23 -70 -25 -60 -2 -62 2 -35 59 45 99 71 131 115 143
72 19 91 44 32 44 -14 0 -25 2 -25 5 0 3 16 25 36 49 23 28 42 42 51 39 8 -3
25 -6 37 -6z m-1905 -72 c11 -11 18 -25 16 -29 -3 -4 -14 -43 -26 -86 -11 -43
-21 -82 -23 -88 -1 -5 -6 -25 -10 -44 l-8 -35 -15 29 c-17 32 -25 154 -12 198
10 36 36 77 49 77 5 0 18 -10 29 -22z m-295 6 c44 -17 -16 -101 -98 -139 -82
-37 -109 -37 -102 2 3 14 8 46 12 69 3 24 9 43 13 42 3 -1 13 2 21 5 45 20
128 31 154 21z m879 -36 c20 -13 38 -30 41 -38 26 -72 56 -168 56 -182 0 -15
-13 -17 -110 -16 -61 1 -113 4 -115 8 -13 21 65 250 85 250 5 0 24 -10 43 -22z
m-1111 -60 c9 -24 0 -126 -16 -193 -2 -5 -7 -28 -11 -50 -5 -22 -10 -43 -11
-47 -1 -5 -2 -12 -3 -17 0 -5 -8 -17 -17 -25 -13 -13 -44 -16 -179 -16 l-164
0 -11 43 c-6 23 -13 49 -15 57 -3 8 -5 18 -6 22 0 4 -7 29 -15 55 -14 48 -9
62 23 63 7 0 47 11 90 24 188 58 254 77 274 81 12 3 24 7 27 10 10 9 30 5 34
-7z m48 -216 c14 -60 18 -67 45 -74 17 -4 44 -19 60 -32 l30 -25 -107 -1
c-105 0 -107 0 -104 23 1 13 5 27 8 32 3 6 9 28 13 50 4 22 9 51 12 64 11 61
23 51 43 -37z"/>
<path d="M2761 5043 c-28 -34 -54 -110 -56 -162 -1 -29 -50 -70 -76 -64 -25 7
-24 15 4 50 65 80 88 135 75 176 -22 62 -115 14 -138 -72 -6 -24 -9 -49 -6
-57 3 -8 1 -14 -5 -14 -6 0 -7 -4 -4 -10 14 -22 13 -50 -1 -50 -8 0 -14 -4
-14 -9 0 -11 -59 -20 -65 -10 -3 3 9 12 25 19 33 14 50 54 31 73 -42 42 -138
-14 -129 -76 2 -13 -3 -23 -13 -25 -13 -2 -16 5 -13 37 1 23 -2 43 -7 47 -21
12 -58 -7 -79 -41 -12 -19 -26 -33 -31 -29 -5 3 1 18 15 34 41 49 69 116 57
138 -18 33 -39 33 -76 1 -47 -42 -57 -96 -39 -209 4 -25 7 -48 6 -52 -1 -5 4
-8 12 -8 31 0 46 13 46 41 0 16 11 40 25 56 16 17 25 22 24 13 -1 -8 -1 -27 0
-42 1 -25 5 -28 34 -28 18 0 41 6 51 13 10 7 36 12 58 10 23 -2 54 4 71 12 24
12 37 13 69 3 28 -8 48 -8 75 0 23 7 42 8 54 2 23 -13 72 -13 85 0 7 7 20 6
40 -5 16 -8 37 -15 46 -15 22 0 68 21 68 31 0 4 17 9 38 11 44 4 45 20 2 31
-16 4 -30 12 -30 18 0 20 -33 43 -63 45 -38 3 -70 -18 -95 -60 -19 -33 -53
-44 -71 -23 -7 9 1 24 28 53 50 52 82 114 74 145 -13 52 -60 53 -102 2z m-81
-33 c0 -21 -49 -120 -60 -120 -10 0 6 70 25 117 15 35 35 37 35 3z m150 4 c0
-27 -48 -114 -62 -114 -14 0 1 71 22 106 26 41 40 44 40 8z m-535 -36 c-4 -33
-23 -78 -33 -78 -14 0 -5 77 10 93 17 19 26 13 23 -15z m209 -103 c-5 -12 -44
-28 -51 -22 -1 2 4 13 13 25 15 22 46 20 38 -3z m432 -42 c-7 -17 -42 -17 -53
0 -14 22 -11 37 10 52 19 13 21 12 34 -12 8 -15 11 -33 9 -40z"/>
<path d="M2640 4635 c-16 -19 -5 -35 25 -35 26 0 39 22 22 39 -15 15 -32 14
-47 -4z"/>
<path d="M1979 4587 c-19 -14 -45 -66 -44 -87 5 -67 43 -176 68 -192 22 -14
37 5 37 46 0 38 14 77 23 66 2 -3 8 -21 13 -40 11 -40 36 -50 64 -25 11 10 26
15 34 12 14 -6 66 13 66 23 0 3 17 5 37 4 32 -1 38 -5 45 -30 10 -36 1 -85
-12 -64 -5 7 -7 31 -5 52 2 22 0 36 -6 33 -21 -13 -6 -100 19 -110 28 -11 52
26 53 83 2 91 52 97 54 6 1 -28 8 -51 19 -62 16 -16 18 -16 37 7 17 21 25 57
21 103 -1 11 7 19 21 22 57 12 84 17 110 21 15 3 36 9 47 15 25 14 27 13 33
-10 8 -31 23 -24 52 26 31 52 39 53 25 3 -8 -28 -7 -36 7 -46 21 -16 45 -17
60 -2 7 7 23 8 45 3 18 -4 39 -8 46 -7 6 0 21 1 32 2 10 0 29 11 40 23 17 19
22 20 30 8 11 -18 4 -30 -20 -30 -26 0 -16 -22 18 -41 17 -10 39 -13 62 -9 23
4 41 1 52 -8 27 -23 94 -27 124 -8 31 21 23 39 -12 26 -14 -6 -26 -10 -28 -10
-4 0 -9 46 -8 83 0 49 -22 49 -72 2 -34 -32 -69 -47 -64 -27 1 4 -2 18 -6 31
-5 15 -4 26 4 31 7 4 9 13 6 19 -11 17 -41 13 -60 -8 -27 -30 -95 -57 -114
-44 -23 14 -27 42 -7 49 25 10 32 -6 11 -22 -24 -17 -7 -19 28 -3 49 23 34 79
-22 79 -36 0 -83 -49 -75 -78 5 -20 -21 -49 -31 -34 -3 5 -1 26 5 46 18 65
-28 84 -70 29 -11 -13 -22 -19 -25 -14 -4 5 -2 12 4 16 17 11 11 35 -9 35 -14
0 -21 -10 -26 -32 -8 -35 -40 -73 -54 -64 -5 4 -5 23 0 47 6 23 7 44 5 47 -11
10 -36 -8 -37 -28 -3 -37 -4 -41 -19 -50 -24 -15 -26 -12 -22 23 5 46 -19 70
-55 56 -14 -5 -33 -9 -42 -8 -38 3 -42 -1 -39 -41 1 -22 -3 -45 -10 -52 -9 -9
-12 -1 -12 35 0 40 -4 49 -22 56 -14 5 -31 4 -43 -2 -11 -6 -24 -12 -30 -13
-5 0 -15 -2 -21 -2 -8 -2 -9 -13 -4 -37 9 -42 2 -76 -19 -92 -22 -16 -32 -3
-35 43 -3 36 -5 39 -37 41 -42 4 -79 -35 -79 -83 0 -18 -5 -36 -11 -39 -14 -9
-19 -3 -25 31 -8 46 -12 54 -33 54 -23 0 -51 -35 -52 -65 0 -11 -3 -14 -6 -8
-2 7 2 34 10 60 26 82 26 91 5 118 -22 28 -26 29 -49 12z m35 -77 c-1 -8 -3
-23 -3 -32 -1 -10 -5 -18 -11 -18 -11 0 -14 83 -3 94 9 9 21 -23 17 -44z m531
19 c8 -12 -13 -69 -25 -69 -9 0 -18 51 -12 68 5 15 29 16 37 1z m-163 -53 c-6
-48 -29 -55 -34 -10 -3 24 1 38 11 44 23 12 28 5 23 -34z m-171 -3 c6 -45 2
-68 -11 -68 -15 0 -21 35 -12 63 4 13 21 17 23 5z m979 -49 c0 -14 -4 -23 -10
-19 -5 3 -10 15 -10 26 0 10 5 19 10 19 6 0 10 -12 10 -26z m-712 -36 c1 -18
-2 -42 -5 -53 -5 -16 -8 -14 -14 15 -6 28 3 70 15 70 2 0 3 -15 4 -32z"/>
<path d="M980 4290 c-29 -41 -38 -122 -16 -155 16 -24 15 -25 -3 -25 -26 0
-37 -45 -17 -74 8 -13 28 -30 46 -38 99 -48 222 49 215 170 -5 101 -4 96 -20
82 -8 -7 -21 -10 -29 -7 -8 3 -26 -3 -39 -14 -34 -26 -50 -17 -78 42 -13 27
-27 49 -31 49 -4 0 -16 -14 -28 -30z"/>
<path d="M3642 4308 c-5 -7 -20 -33 -32 -57 -16 -33 -19 -46 -10 -51 23 -14
39 -4 69 40 28 41 29 46 14 62 -19 21 -27 22 -41 6z"/>
<path d="M3804 4207 c-6 -6 -25 -24 -43 -40 -32 -28 -39 -51 -21 -62 6 -4 35
10 65 29 47 32 53 39 46 59 -10 25 -31 32 -47 14z"/>
<path d="M1542 4030 c-12 -12 -22 -24 -22 -27 0 -3 16 -26 36 -50 34 -42 37
-43 55 -27 18 16 18 18 -8 63 -36 64 -36 64 -61 41z"/>
<path d="M1419 3887 c-16 -22 -15 -24 12 -52 16 -15 29 -32 29 -37 0 -14 40
-9 46 6 6 15 -50 106 -64 106 -4 0 -14 -11 -23 -23z"/>
<path d="M4267 3752 c-9 -22 -26 -47 -37 -57 -19 -17 -21 -17 -38 -2 -10 10
-32 19 -49 21 -16 1 -35 6 -40 9 -6 4 -9 -25 -9 -76 1 -71 4 -86 26 -115 52
-69 124 -92 188 -61 48 24 65 56 48 90 -7 13 -18 23 -25 21 -9 -2 -9 3 -1 18
20 37 18 96 -4 141 -12 23 -26 44 -32 46 -5 2 -18 -14 -27 -35z"/>
<path d="M3802 2742 c-70 -55 9 -196 147 -265 93 -46 159 -29 163 43 2 45 -20
85 -74 139 -87 86 -188 121 -236 83z m134 -51 c82 -42 158 -147 131 -179 -16
-20 -87 -8 -135 22 -43 27 -96 89 -111 129 -21 55 37 69 115 28z"/>
<path d="M3462 2684 c-43 -30 -73 -112 -77 -213 -4 -102 31 -171 88 -171 44 1
62 18 94 86 48 105 33 272 -27 304 -27 14 -52 12 -78 -6z m83 -55 c16 -30 23
-133 12 -174 -18 -66 -52 -115 -82 -115 -8 0 -23 17 -33 38 -32 65 -14 205 34
257 31 33 50 32 69 -6z"/>
<path d="M4355 2611 c-119 -55 -205 -225 -145 -288 21 -23 34 -27 80 -23 86 7
202 142 209 242 2 29 -3 43 -23 63 -30 30 -65 32 -121 6z m98 -30 c10 -1 9
-55 -3 -85 -23 -61 -140 -160 -183 -154 -28 4 -37 44 -19 87 28 69 138 164
181 156 9 -2 19 -4 24 -4z"/>
<path d="M4059 2298 c-5 -12 -5 -69 0 -72 3 -3 6 13 6 35 0 33 -2 46 -6 37z"/>
<path d="M4056 2195 c-3 -8 -1 -15 4 -15 6 0 10 7 10 15 0 8 -2 15 -4 15 -2 0
-6 -7 -10 -15z"/>
<path d="M3163 2192 c-21 -3 -72 -61 -65 -72 2 -3 13 -22 24 -42 54 -96 236
-170 326 -132 44 18 53 71 21 118 -56 82 -206 145 -306 128z m131 -52 c6 -6
17 -10 25 -10 20 0 97 -60 115 -92 15 -24 15 -28 -1 -43 -39 -40 -205 13 -263
83 -28 35 -31 46 -16 71 7 10 23 12 69 7 34 -3 66 -11 71 -16z"/>
<path d="M4065 2034 c2 -124 5 -144 22 -161 11 -11 26 -28 34 -39 25 -35 76
-64 112 -64 89 0 101 112 26 242 -54 91 -109 133 -164 124 -13 -2 -22 4 -27
18 -3 12 -5 -43 -3 -120z m73 52 c80 -42 147 -174 128 -250 -23 -94 -192 92
-188 206 3 62 12 69 60 44z"/>
<path d="M4072 1850 c0 -14 2 -19 5 -12 2 6 2 18 0 25 -3 6 -5 1 -5 -13z"/>
<path d="M4072 1791 c0 -17 1 -31 3 -31 7 0 12 39 5 49 -4 7 -7 -1 -8 -18z"/>
<path d="M3067 1753 c-44 -31 -112 -128 -127 -181 -21 -76 -6 -136 40 -159 51
-25 134 37 193 145 81 149 11 278 -106 195z m99 -47 c8 -33 -22 -133 -55 -181
-30 -45 -87 -87 -110 -83 -28 6 -22 90 10 156 32 64 42 78 83 110 38 29 64 28
72 -2z"/>
<path d="M4070 1739 c0 -5 5 -7 10 -4 6 3 10 8 10 11 0 2 -4 4 -10 4 -5 0 -10
-5 -10 -11z"/>
<path d="M4074 1706 c1 -8 5 -18 8 -22 4 -3 5 1 4 10 -1 8 -5 18 -8 22 -4 3
-5 -1 -4 -10z"/>
<path d="M4075 1640 c-3 -5 -1 -10 4 -10 6 0 11 5 11 10 0 6 -2 10 -4 10 -3 0
-8 -4 -11 -10z"/>
<path d="M1703 270 c-25 -10 -73 -77 -73 -102 0 -10 7 -18 15 -18 8 -1 71 -1
140 -1 155 0 145 -1 145 9 0 13 -72 82 -101 97 -36 19 -99 27 -126 15z m144
-53 c24 -17 43 -35 43 -41 0 -8 -39 -10 -120 -8 -66 2 -120 6 -120 9 0 14 45
66 64 73 33 14 86 1 133 -33z"/>
</g>
</svg>
